<svg data-v-423bf9ae="" xmlns="http://www.w3.org/2000/svg" viewBox="0 0 301.4321943687363 60" class="font"><!----><!----><defs data-v-423bf9ae=""><linearGradient data-v-423bf9ae="" gradientTransform="rotate(25)" id="c2484259-d586-4677-b2be-82c381d81a8f" x1="0%" y1="0%" x2="100%" y2="0%"><stop data-v-423bf9ae="" offset="0%" style="stop-color: rgb(0, 125, 232); stop-opacity: 1;"></stop><stop data-v-423bf9ae="" offset="100%" style="stop-color: rgb(161, 195, 219); stop-opacity: 1;"></stop></linearGradient></defs><g data-v-423bf9ae="" id="d054e1ba-7dd3-4ab6-86fd-ba01cdac7df2" fill="url(#c2484259-d586-4677-b2be-82c381d81a8f)" transform="matrix(5.11508929781524,0,0,5.11508929781524,-2.506391965259951,-27.877236174304358)"><path d="M0.49 10.44L0.49 10.44L0.49 10.44Q0.49 9.35 0.83 8.51L0.83 8.51L0.83 8.51Q1.18 7.67 1.77 7.11L1.77 7.11L1.77 7.11Q2.37 6.54 3.17 6.24L3.17 6.24L3.17 6.24Q3.98 5.95 4.91 5.95L4.91 5.95L4.91 5.95Q5.85 5.95 6.66 6.24L6.66 6.24L6.66 6.24Q7.46 6.54 8.06 7.11L8.06 7.11L8.06 7.11Q8.67 7.67 9.01 8.51L9.01 8.51L9.01 8.51Q9.35 9.35 9.35 10.44L9.35 10.44L9.35 10.44Q9.35 11.54 9.02 12.38L9.02 12.38L9.02 12.38Q8.68 13.23 8.09 13.80L8.09 13.80L8.09 13.80Q7.49 14.36 6.68 14.66L6.68 14.66L6.68 14.66Q5.87 14.95 4.91 14.95L4.91 14.95L4.91 14.95Q3.96 14.95 3.15 14.65L3.15 14.65L3.15 14.65Q2.34 14.35 1.75 13.78L1.75 13.78L1.75 13.78Q1.16 13.20 0.83 12.36L0.83 12.36L0.83 12.36Q0.49 11.52 0.49 10.44ZM3.01 10.44L3.01 10.44L3.01 10.44Q3.01 11.72 3.53 12.35L3.53 12.35L3.53 12.35Q4.05 12.98 4.91 12.98L4.91 12.98L4.91 12.98Q5.80 12.98 6.31 12.35L6.31 12.35L6.31 12.35Q6.83 11.72 6.83 10.44L6.83 10.44L6.83 10.44Q6.83 9.18 6.32 8.55L6.32 8.55L6.32 8.55Q5.81 7.92 4.93 7.92L4.93 7.92L4.93 7.92Q4.06 7.92 3.54 8.55L3.54 8.55L3.54 8.55Q3.01 9.17 3.01 10.44ZM14.41 9.56L14.41 9.56L14.41 9.56Q14.06 9.56 13.74 9.67L13.74 9.67L13.74 9.67Q13.43 9.79 13.20 10.00L13.20 10.00L13.20 10.00Q12.96 10.22 12.82 10.54L12.82 10.54L12.82 10.54Q12.68 10.86 12.68 11.30L12.68 11.30L12.68 11.30Q12.68 12.17 13.18 12.60L13.18 12.60L13.18 12.60Q13.68 13.03 14.39 13.03L14.39 13.03L14.39 13.03Q14.81 13.03 15.12 12.94L15.12 12.94L15.12 12.94Q15.43 12.84 15.67 12.73L15.67 12.73L15.67 12.73Q15.95 12.92 16.09 13.15L16.09 13.15L16.09 13.15Q16.23 13.38 16.23 13.71L16.23 13.71L16.23 13.71Q16.23 14.28 15.68 14.60L15.68 14.60L15.68 14.60Q15.13 14.91 14.17 14.91L14.17 14.91L14.17 14.91Q13.29 14.91 12.57 14.65L12.57 14.65L12.57 14.65Q11.86 14.39 11.35 13.92L11.35 13.92L11.35 13.92Q10.84 13.45 10.56 12.80L10.56 12.80L10.56 12.80Q10.28 12.14 10.28 11.34L10.28 11.34L10.28 11.34Q10.28 10.42 10.58 9.72L10.58 9.72L10.58 9.72Q10.88 9.03 11.40 8.58L11.40 8.58L11.40 8.58Q11.91 8.13 12.59 7.91L12.59 7.91L12.59 7.91Q13.27 7.69 14.03 7.69L14.03 7.69L14.03 7.69Q15.04 7.69 15.58 8.05L15.58 8.05L15.58 8.05Q16.13 8.41 16.13 8.99L16.13 8.99L16.13 8.99Q16.13 9.25 16.00 9.49L16.00 9.49L16.00 9.49Q15.88 9.72 15.71 9.88L15.71 9.88L15.71 9.88Q15.47 9.77 15.13 9.67L15.13 9.67L15.13 9.67Q14.80 9.56 14.41 9.56ZM20.33 13.19L20.33 13.19L20.33 13.19Q20.57 13.19 20.85 13.14L20.85 13.14L20.85 13.14Q21.14 13.09 21.28 13.01L21.28 13.01L21.28 11.89L20.27 11.97L20.27 11.97Q19.88 12.00 19.63 12.14L19.63 12.14L19.63 12.14Q19.38 12.28 19.38 12.56L19.38 12.56L19.38 12.56Q19.38 12.84 19.59 13.01L19.59 13.01L19.59 13.01Q19.81 13.19 20.33 13.19ZM20.22 7.69L20.22 7.69L20.22 7.69Q20.97 7.69 21.60 7.84L21.60 7.84L21.60 7.84Q22.22 7.99 22.66 8.31L22.66 8.31L22.66 8.31Q23.10 8.62 23.34 9.11L23.34 9.11L23.34 9.11Q23.58 9.59 23.58 10.25L23.58 10.25L23.58 13.38L23.58 13.38Q23.58 13.75 23.37 13.98L23.37 13.98L23.37 13.98Q23.17 14.21 22.89 14.38L22.89 14.38L22.89 14.38Q21.98 14.92 20.33 14.92L20.33 14.92L20.33 14.92Q19.59 14.92 18.99 14.78L18.99 14.78L18.99 14.78Q18.40 14.64 17.97 14.36L17.97 14.36L17.97 14.36Q17.54 14.08 17.31 13.65L17.31 13.65L17.31 13.65Q17.08 13.22 17.08 12.64L17.08 12.64L17.08 12.64Q17.08 11.68 17.65 11.16L17.65 11.16L17.65 11.16Q18.23 10.64 19.43 10.51L19.43 10.51L21.27 10.32L21.27 10.22L21.27 10.22Q21.27 9.81 20.91 9.64L20.91 9.64L20.91 9.64Q20.55 9.46 19.88 9.46L19.88 9.46L19.88 9.46Q19.35 9.46 18.84 9.58L18.84 9.58L18.84 9.58Q18.34 9.69 17.93 9.86L17.93 9.86L17.93 9.86Q17.75 9.73 17.63 9.47L17.63 9.47L17.63 9.47Q17.50 9.21 17.50 8.93L17.50 8.93L17.50 8.93Q17.50 8.57 17.68 8.35L17.68 8.35L17.68 8.35Q17.85 8.13 18.21 7.98L18.21 7.98L18.21 7.98Q18.62 7.83 19.17 7.76L19.17 7.76L19.17 7.76Q19.73 7.69 20.22 7.69ZM24.74 11.30L24.74 11.30L24.74 11.30Q24.74 10.37 25.02 9.70L25.02 9.70L25.02 9.70Q25.30 9.02 25.80 8.57L25.80 8.57L25.80 8.57Q26.29 8.12 26.96 7.90L26.96 7.90L26.96 7.90Q27.62 7.69 28.39 7.69L28.39 7.69L28.39 7.69Q28.67 7.69 28.94 7.74L28.94 7.74L28.94 7.74Q29.20 7.78 29.37 7.85L29.37 7.85L29.37 5.59L29.37 5.59Q29.51 5.54 29.82 5.50L29.82 5.50L29.82 5.50Q30.13 5.45 30.45 5.45L30.45 5.45L30.45 5.45Q30.76 5.45 31.00 5.49L31.00 5.49L31.00 5.49Q31.25 5.53 31.42 5.66L31.42 5.66L31.42 5.66Q31.58 5.78 31.67 6.00L31.67 6.00L31.67 6.00Q31.75 6.22 31.75 6.57L31.75 6.57L31.75 13.20L31.75 13.20Q31.75 13.86 31.14 14.25L31.14 14.25L31.14 14.25Q30.73 14.52 30.09 14.72L30.09 14.72L30.09 14.72Q29.44 14.92 28.60 14.92L28.60 14.92L28.60 14.92Q27.69 14.92 26.97 14.67L26.97 14.67L26.97 14.67Q26.25 14.42 25.75 13.94L25.75 13.94L25.75 13.94Q25.26 13.47 25.00 12.80L25.00 12.80L25.00 12.80Q24.74 12.14 24.74 11.30ZM28.71 9.55L28.71 9.55L28.71 9.55Q27.96 9.55 27.55 9.98L27.55 9.98L27.55 9.98Q27.15 10.42 27.15 11.30L27.15 11.30L27.15 11.30Q27.15 12.17 27.52 12.61L27.52 12.61L27.52 12.61Q27.90 13.05 28.62 13.05L28.62 13.05L28.62 13.05Q28.87 13.05 29.07 12.97L29.07 12.97L29.07 12.97Q29.27 12.89 29.39 12.80L29.39 12.80L29.39 9.72L29.39 9.72Q29.11 9.55 28.71 9.55ZM36.83 14.92L36.83 14.92L36.83 14.92Q36.01 14.92 35.30 14.69L35.30 14.69L35.30 14.69Q34.59 14.46 34.07 14.00L34.07 14.00L34.07 14.00Q33.54 13.54 33.24 12.84L33.24 12.84L33.24 12.84Q32.94 12.14 32.94 11.20L32.94 11.20L32.94 11.20Q32.94 10.28 33.24 9.61L33.24 9.61L33.24 9.61Q33.54 8.95 34.03 8.52L34.03 8.52L34.03 8.52Q34.52 8.09 35.15 7.89L35.15 7.89L35.15 7.89Q35.78 7.69 36.44 7.69L36.44 7.69L36.44 7.69Q37.18 7.69 37.79 7.91L37.79 7.91L37.79 7.91Q38.40 8.13 38.84 8.53L38.84 8.53L38.84 8.53Q39.28 8.92 39.53 9.46L39.53 9.46L39.53 9.46Q39.77 10.01 39.77 10.65L39.77 10.65L39.77 10.65Q39.77 11.13 39.51 11.38L39.51 11.38L39.51 11.38Q39.24 11.63 38.77 11.70L38.77 11.70L35.31 12.22L35.31 12.22Q35.46 12.68 35.94 12.92L35.94 12.92L35.94 12.92Q36.41 13.15 37.03 13.15L37.03 13.15L37.03 13.15Q37.60 13.15 38.12 13.00L38.12 13.00L38.12 13.00Q38.63 12.85 38.95 12.66L38.95 12.66L38.95 12.66Q39.17 12.80 39.33 13.05L39.33 13.05L39.33 13.05Q39.48 13.30 39.48 13.58L39.48 13.58L39.48 13.58Q39.48 14.21 38.89 14.52L38.89 14.52L38.89 14.52Q38.44 14.76 37.88 14.84L37.88 14.84L37.88 14.84Q37.32 14.92 36.83 14.92ZM36.44 9.42L36.44 9.42L36.44 9.42Q36.11 9.42 35.86 9.53L35.86 9.53L35.86 9.53Q35.62 9.65 35.46 9.82L35.46 9.82L35.46 9.82Q35.31 10.00 35.23 10.21L35.23 10.21L35.23 10.21Q35.15 10.43 35.14 10.65L35.14 10.65L37.53 10.26L37.53 10.26Q37.49 9.98 37.23 9.70L37.23 9.70L37.23 9.70Q36.96 9.42 36.44 9.42ZM44.18 7.69L44.18 7.69L44.18 7.69Q44.76 7.69 45.31 7.85L45.31 7.85L45.31 7.85Q45.86 8.01 46.27 8.33L46.27 8.33L46.27 8.33Q46.69 8.05 47.22 7.87L47.22 7.87L47.22 7.87Q47.74 7.69 48.48 7.69L48.48 7.69L48.48 7.69Q49.01 7.69 49.53 7.83L49.53 7.83L49.53 7.83Q50.04 7.97 50.44 8.27L50.44 8.27L50.44 8.27Q50.83 8.57 51.07 9.07L51.07 9.07L51.07 9.07Q51.31 9.56 51.31 10.28L51.31 10.28L51.31 14.69L51.31 14.69Q51.17 14.73 50.87 14.77L50.87 14.77L50.87 14.77Q50.57 14.81 50.25 14.81L50.25 14.81L50.25 14.81Q49.94 14.81 49.69 14.77L49.69 14.77L49.69 14.77Q49.45 14.73 49.28 14.60L49.28 14.60L49.28 14.60Q49.11 14.48 49.02 14.26L49.02 14.26L49.02 14.26Q48.93 14.04 48.93 13.69L48.93 13.69L48.93 10.35L48.93 10.35Q48.93 9.93 48.69 9.74L48.69 9.74L48.69 9.74Q48.45 9.55 48.05 9.55L48.05 9.55L48.05 9.55Q47.85 9.55 47.63 9.64L47.63 9.64L47.63 9.64Q47.40 9.73 47.29 9.83L47.29 9.83L47.29 9.83Q47.31 9.88 47.31 9.93L47.31 9.93L47.31 9.93Q47.31 9.98 47.31 10.02L47.31 10.02L47.31 14.69L47.31 14.69Q47.15 14.73 46.85 14.77L46.85 14.77L46.85 14.77Q46.55 14.81 46.24 14.81L46.24 14.81L46.24 14.81Q45.93 14.81 45.69 14.77L45.69 14.77L45.69 14.77Q45.44 14.73 45.28 14.60L45.28 14.60L45.28 14.60Q45.11 14.48 45.02 14.26L45.02 14.26L45.02 14.26Q44.93 14.04 44.93 13.69L44.93 13.69L44.93 10.35L44.93 10.35Q44.93 9.93 44.67 9.74L44.67 9.74L44.67 9.74Q44.41 9.55 44.04 9.55L44.04 9.55L44.04 9.55Q43.79 9.55 43.61 9.63L43.61 9.63L43.61 9.63Q43.43 9.70 43.30 9.77L43.30 9.77L43.30 14.69L43.30 14.69Q43.16 14.73 42.86 14.77L42.86 14.77L42.86 14.77Q42.56 14.81 42.24 14.81L42.24 14.81L42.24 14.81Q41.93 14.81 41.69 14.77L41.69 14.77L41.69 14.77Q41.44 14.73 41.27 14.60L41.27 14.60L41.27 14.60Q41.10 14.48 41.01 14.26L41.01 14.26L41.01 14.26Q40.92 14.04 40.92 13.69L40.92 13.69L40.92 9.46L40.92 9.46Q40.92 9.09 41.08 8.86L41.08 8.86L41.08 8.86Q41.24 8.64 41.52 8.44L41.52 8.44L41.52 8.44Q42 8.11 42.71 7.90L42.71 7.90L42.71 7.90Q43.41 7.69 44.18 7.69ZM53.83 12.96L53.83 12.96L53.83 12.96Q53.68 12.61 53.50 12.18L53.50 12.18L53.50 12.18Q53.33 11.75 53.14 11.19L53.14 11.19L53.14 11.19Q52.95 10.63 52.75 9.91L52.75 9.91L52.75 9.91Q52.54 9.18 52.32 8.25L52.32 8.25L52.32 8.25Q52.51 8.05 52.84 7.90L52.84 7.90L52.84 7.90Q53.17 7.76 53.56 7.76L53.56 7.76L53.56 7.76Q54.05 7.76 54.38 7.96L54.38 7.96L54.38 7.96Q54.70 8.16 54.85 8.72L54.85 8.72L55.96 12.57L56.01 12.57L56.01 12.57Q56.18 12.10 56.34 11.54L56.34 11.54L56.34 11.54Q56.50 10.98 56.66 10.38L56.66 10.38L56.66 10.38Q56.81 9.79 56.95 9.19L56.95 9.19L56.95 9.19Q57.08 8.60 57.18 8.02L57.18 8.02L57.18 8.02Q57.68 7.76 58.28 7.76L58.28 7.76L58.28 7.76Q58.77 7.76 59.09 7.97L59.09 7.97L59.09 7.97Q59.42 8.18 59.42 8.69L59.42 8.69L59.42 8.69Q59.42 9.07 59.32 9.57L59.32 9.57L59.32 9.57Q59.22 10.07 59.06 10.63L59.06 10.63L59.06 10.63Q58.90 11.19 58.68 11.78L58.68 11.78L58.68 11.78Q58.46 12.38 58.23 12.95L58.23 12.95L58.23 12.95Q57.99 13.52 57.74 14.04L57.74 14.04L57.74 14.04Q57.48 14.55 57.25 14.95L57.25 14.95L57.25 14.95Q56.85 15.64 56.52 16.07L56.52 16.07L56.52 16.07Q56.18 16.51 55.87 16.75L55.87 16.75L55.87 16.75Q55.57 17.00 55.26 17.09L55.26 17.09L55.26 17.09Q54.95 17.18 54.61 17.18L54.61 17.18L54.61 17.18Q54.03 17.18 53.66 16.83L53.66 16.83L53.66 16.83Q53.30 16.48 53.23 15.92L53.23 15.92L53.23 15.92Q53.68 15.57 54.12 15.14L54.12 15.14L54.12 15.14Q54.57 14.71 54.94 14.27L54.94 14.27L54.94 14.27Q54.70 14.20 54.43 13.94L54.43 13.94L54.43 13.94Q54.15 13.68 53.83 12.96Z"></path></g><!----><!----></svg>